<?xml version="1.0" encoding="utf-8"?>
<!-- Generator: Adobe Illustrator 19.0.0, SVG Export Plug-In . SVG Version: 6.00 Build 0)  -->
<svg version="1.1" id="图层_1" xmlns="http://www.w3.org/2000/svg" xmlns:xlink="http://www.w3.org/1999/xlink" x="0px" y="0px"
	 viewBox="0 0 100 30" style="enable-background:new 0 0 100 30;" xml:space="preserve">
<style type="text/css">
	.st0{fill:#C71C23;}
	.st1{fill:#E37E7E;}
	.st2{fill:#D92741;}
	.st3{fill:#2F3131;}
</style>
<g id="XMLID_208_">
	<polygon id="XMLID_215_" class="st0" points="31.9,16.7 31.9,19.9 31.9,23.2 28.7,23.2 25.4,23.2 22.2,23.2 18.9,23.2 15.6,23.2 
		12.4,23.2 12.4,19.9 12.4,16.7 12.4,13.4 12.4,10.1 12.4,6.9 15.6,6.9 18.9,6.9 22.2,6.9 25.4,6.9 25.4,10.1 25.4,13.4 25.4,16.7 
		22.2,16.7 18.9,16.7 18.9,13.4 22.2,13.4 22.2,10.1 18.9,10.1 15.6,10.1 15.6,13.4 15.6,16.7 15.6,19.9 18.9,19.9 22.2,19.9 
		25.4,19.9 28.7,19.9 28.7,16.7 28.7,13.4 28.7,10.1 28.7,6.9 28.7,3.6 25.4,3.6 22.2,3.6 18.9,3.6 15.6,3.6 12.4,3.6 9.1,3.6 
		9.1,6.9 9.1,10.1 9.1,13.4 9.1,16.7 9.1,19.9 9.1,23.2 9.1,26.5 12.4,26.5 15.6,26.5 18.9,26.5 22.2,26.5 25.4,26.5 28.7,26.5 
		31.9,26.5 35.2,26.5 35.2,23.2 35.2,19.9 35.2,16.7 	"/>
	<rect id="XMLID_212_" x="31.9" y="3.6" class="st1" width="3.3" height="3.3"/>
	<rect id="XMLID_209_" x="31.9" y="10.6" class="st2" width="3.3" height="3.3"/>
</g>
<g id="XMLID_1_">
	<polygon id="XMLID_2_" class="st3" points="57.6,13.5 57.6,7 62.6,7 62.6,11.9 65,11.9 65,7 65,4.7 62.6,4.7 55.3,4.7 55.3,5.8 
		55.3,7 55.3,13.5 55.3,14.7 55.3,15.9 63.8,15.9 63.8,22.6 59.8,22.6 59.8,25 63.8,25 66.2,25 66.2,22.6 66.2,15.9 66.2,15.3 
		66.2,13.5 	"/>
	<rect id="XMLID_22_" x="55.5" y="18.3" class="st3" width="6.4" height="2.4"/>
	<path id="XMLID_25_" class="st3" d="M44.9,7h2.5l-2.5,6.5h0V15h0v7.6v1.8V25h7h1.4h1v-9.1v-0.4v-2h-6.8L49.9,7h4.3V4.7h-9.3V7z
		 M51.9,22.6h-4.6v-6.8h4.6V22.6z"/>
</g>
<g id="XMLID_3_">
	<rect id="XMLID_4_" x="71.7" y="4.6" class="st3" width="16.6" height="2.3"/>
	<path id="XMLID_16_" class="st3" d="M90.8,21.1c0-2.4-1.9-4.3-4.3-4.3c-1.5,0-2.8,0.7-3.6,1.9c-0.1,0.2-0.2,0.3-0.3,0.5
		c-0.3,0.5-0.4,1.2-0.4,1.8c0,0.1,0,0.1,0,0.2c0.4-0.6,0.9-1.1,1.5-1.4c0.6-0.4,1.4-0.6,2.2-0.6c0.2,0,0.3,0,0.5,0l0.3,0
		c0.3,0.1,0.6,0.1,0.8,0.2c0.6,0.3,1,1,1,1.7c0,1.1-0.9,2-1.9,2l-0.1,0c0,0,0,0,0,0l0,0l-12.2,0l3.4-9.1h11.7v-2.3H71V14h4.1
		L71.7,23h0v2.4l15,0v0c1.5-0.1,2.9-0.9,3.6-2.2h0l0,0c0.2-0.3,0.3-0.7,0.4-1C90.8,21.9,90.8,21.5,90.8,21.1z"/>
</g>
</svg>
